<svg version="1.1" xmlns="http://www.w3.org/2000/svg" viewBox="0 0 2588 1868" width="2588" height="1868">
  <!-- svg-source:excalidraw -->
  
  <defs>
    <style class="style-fonts">
      @font-face {
        font-family: "Virgil";
        src: url("https://file%2B.vscode-resource.vscode-cdn.net/home/rkulasekera/.vscode/extensions/pomdtr.excalidraw-editor-3.7.4/public//dist/excalidraw-assets/Virgil.woff2");
      }
      @font-face {
        font-family: "Cascadia";
        src: url("https://file%2B.vscode-resource.vscode-cdn.net/home/rkulasekera/.vscode/extensions/pomdtr.excalidraw-editor-3.7.4/public//dist/excalidraw-assets/Cascadia.woff2");
      }
      @font-face {
        font-family: "Assistant";
        src: url("https://file%2B.vscode-resource.vscode-cdn.net/home/rkulasekera/.vscode/extensions/pomdtr.excalidraw-editor-3.7.4/public//dist/excalidraw-assets/Assistant-Regular.woff2");
      }
    </style>
    
  </defs>
  <g stroke-linecap="round" transform="translate(739.6952230445663 1211) rotate(0 129.5 82)"><path d="M32 0 C80.52 0.25, 130.38 4.17, 227 0 C248.12 3.34, 261.35 11.73, 259 32 C259.42 57.18, 257.14 84.05, 259 132 C255.44 150.81, 249.96 160.63, 227 164 C161.4 162.79, 90.41 166.59, 32 164 C10.62 162.78, 0.57 156.33, 0 132 C1.31 102.07, 0.64 68.21, 0 32 C3.16 11.29, 12.75 2.16, 32 0" stroke="none" stroke-width="0" fill="#ffec99"></path><path d="M32 0 C78.57 -0.5, 129.05 -1.27, 227 0 M32 0 C96.45 -1.15, 163.24 -1.19, 227 0 M227 0 C246.93 1.26, 259.67 9.53, 259 32 M227 0 C246.05 0.63, 259.17 12.61, 259 32 M259 32 C259.41 55.96, 260.77 80.6, 259 132 M259 32 C257.68 66.47, 258.65 102.9, 259 132 M259 132 C260.59 155.12, 250.13 163.59, 227 164 M259 132 C258.14 151.41, 246.53 165.62, 227 164 M227 164 C175.05 165.24, 119.85 165.82, 32 164 M227 164 C169.63 162.37, 111.21 162.39, 32 164 M32 164 C10.27 165.2, -0.13 154.17, 0 132 M32 164 C10.4 165.77, 2.2 151.64, 0 132 M0 132 C-0.39 99.82, -0.86 69.25, 0 32 M0 132 C-0.18 97.37, 0.39 60.63, 0 32 M0 32 C1.81 12.38, 12.45 0.34, 32 0 M0 32 C1.42 9.9, 8.49 -0.49, 32 0" stroke="#1e1e1e" stroke-width="2" fill="none"></path></g><g stroke-linecap="round" transform="translate(243.08566913369918 1219) rotate(0 129.5 82)"><path d="M32 0 C78.66 -2.26, 127.02 -4.82, 227 0 C245.81 1.62, 255.63 12.3, 259 32 C257.88 58.41, 261.68 88.64, 259 132 C257.78 153.9, 251.33 164.49, 227 164 C170.47 165.82, 109.99 168.4, 32 164 C11.29 166.08, 2.16 154.41, 0 132 C0.47 102.26, -0.39 76.16, 0 32 C3.54 11.9, 10.68 -0.44, 32 0" stroke="none" stroke-width="0" fill="#ffec99"></path><path d="M32 0 C108.01 2.04, 180.35 -0.62, 227 0 M32 0 C95.23 -1.41, 159.81 -1.56, 227 0 M227 0 C248.68 1.54, 260.38 11.68, 259 32 M227 0 C246.23 -1, 258.07 9.24, 259 32 M259 32 C261.52 69.41, 259.32 102.47, 259 132 M259 32 C257.97 52.88, 258.69 76.14, 259 132 M259 132 C259.32 153.43, 249.23 163.96, 227 164 M259 132 C259.4 152.17, 250.04 162.52, 227 164 M227 164 C161.1 163.48, 93.63 163.38, 32 164 M227 164 C153.58 161.91, 80.15 162.04, 32 164 M32 164 C9.31 162.49, -1.1 154.44, 0 132 M32 164 C9.16 163.49, -1.92 155.41, 0 132 M0 132 C2.01 106.44, 0.64 78.55, 0 32 M0 132 C0.52 105.84, 0.22 78.2, 0 32 M0 32 C-1.28 9.68, 11.57 -0.12, 32 0 M0 32 C2.13 12.17, 11.35 -0.54, 32 0" stroke="#1e1e1e" stroke-width="2" fill="none"></path></g><g stroke-linecap="round" transform="translate(1237 857) rotate(0 153.5 245.5)"><path d="M32 0 C92.43 0.67, 152.85 1.66, 275 0 C297.95 1.26, 304.13 11.03, 307 32 C312.28 122.51, 311.23 210.32, 307 459 C310.59 480.93, 292.99 492.35, 275 491 C188.68 486.48, 95.91 487.63, 32 491 C12 490.47, 3.55 478.83, 0 459 C0.5 336.12, -1.5 214.79, 0 32 C1.18 14.04, 7.31 -1.6, 32 0" stroke="none" stroke-width="0" fill="#ffd8a8"></path><path d="M32 0 C122.76 -0.88, 215.15 -1.92, 275 0 M32 0 C88.36 1.53, 145.96 1.15, 275 0 M275 0 C295.38 1.31, 306.36 9.53, 307 32 M275 0 C295.86 -0.41, 305.96 9.21, 307 32 M307 32 C305.89 163.86, 307.23 296.1, 307 459 M307 32 C304.92 190.78, 305.52 349.4, 307 459 M307 459 C307.93 481.41, 296.37 491.15, 275 491 M307 459 C305.58 480.74, 298.47 493.21, 275 491 M275 491 C196.28 491.74, 116.6 491.95, 32 491 M275 491 C220.42 490.89, 166.1 490.44, 32 491 M32 491 C11.66 489.24, -0.67 478.64, 0 459 M32 491 C9.93 490.88, -1.11 482.11, 0 459 M0 459 C-0.15 328.12, 1.12 197.3, 0 32 M0 459 C-1.38 315.89, -1.57 173.56, 0 32 M0 32 C-0.09 9.24, 10.44 1.53, 32 0 M0 32 C1.97 10.57, 9.19 2.04, 32 0" stroke="#1e1e1e" stroke-width="2" fill="none"></path></g><g stroke-linecap="round" transform="translate(1785 1061) rotate(0 206 56)"><path d="M28 0 C156.93 -2.55, 287.82 -1.87, 384 0 C401.46 1.05, 414.46 6.58, 412 28 C414.75 50.46, 410.11 64.21, 412 84 C413.09 100.61, 403.08 115.59, 384 112 C277.03 109.61, 170.91 109.25, 28 112 C9.21 114.18, 3.33 106.12, 0 84 C1.83 69.17, -1.65 50.16, 0 28 C-0.01 12.24, 7.87 -3.13, 28 0" stroke="none" stroke-width="0" fill="#ffec99"></path><path d="M28 0 C103.29 0.29, 178.42 1.81, 384 0 M28 0 C149.41 0.58, 272.01 0.86, 384 0 M384 0 C402.67 0.71, 413.95 9.49, 412 28 M384 0 C401.16 -0.94, 413.19 7.87, 412 28 M412 28 C412.76 50.28, 411.18 67.22, 412 84 M412 28 C411.43 47.93, 412.82 67.24, 412 84 M412 84 C410.99 101.86, 403.28 111.39, 384 112 M412 84 C410.38 104.26, 402.46 110.85, 384 112 M384 112 C309.57 113.3, 234.24 113.37, 28 112 M384 112 C265.76 109.96, 148.89 110.5, 28 112 M28 112 C10.3 113.2, 1.55 101.42, 0 84 M28 112 C10.29 113.37, 1.13 101.56, 0 84 M0 84 C0.53 71.91, 0.28 58.03, 0 28 M0 84 C-0.3 61.73, 1.41 39.89, 0 28 M0 28 C-1.27 8.12, 8.73 -0.34, 28 0 M0 28 C-1.19 10.86, 9.37 0.95, 28 0" stroke="#1e1e1e" stroke-width="2" fill="none"></path></g><g stroke-linecap="round" transform="translate(2341 886) rotate(0 118.5 202)"><path d="M32 0 C91.53 0.21, 142.36 -2.47, 205 0 C227.25 3.21, 239.23 12.24, 237 32 C235.15 108.9, 234.85 185.89, 237 372 C238.15 390.91, 224.26 401.61, 205 404 C152.65 404.54, 98.67 403.61, 32 404 C10.92 403.89, 1.71 394.4, 0 372 C3.97 272.9, 0.9 172.61, 0 32 C-2.19 11.7, 7.76 -2.32, 32 0" stroke="none" stroke-width="0" fill="#ffec99"></path><path d="M32 0 C76.56 -0.25, 123.32 -1.38, 205 0 M32 0 C98.47 1, 165.81 0.81, 205 0 M205 0 C228.33 0.04, 235.51 9.06, 237 32 M205 0 C226.82 0.9, 238.82 11.21, 237 32 M237 32 C239.65 133.12, 237.95 233.57, 237 372 M237 32 C239.49 148.26, 239.59 264.24, 237 372 M237 372 C235.26 394.15, 227.69 405.21, 205 404 M237 372 C236.94 394.9, 226.73 405.86, 205 404 M205 404 C165.88 403.89, 130.52 404.12, 32 404 M205 404 C165.77 402.57, 126.14 402.95, 32 404 M32 404 C10.51 404.24, -1.17 392.01, 0 372 M32 404 C12.38 402.14, 0.43 395.59, 0 372 M0 372 C1.68 251.53, -0.77 133.17, 0 32 M0 372 C-0.06 239.73, -0.49 107.96, 0 32 M0 32 C1.96 8.68, 9.24 -0.64, 32 0 M0 32 C-1.1 8.72, 12.95 1.06, 32 0" stroke="#1e1e1e" stroke-width="2" fill="none"></path></g><g transform="translate(2419 1075) rotate(0 36.41401672363281 22.5)"><text x="0" y="0" font-family="Virgil, Segoe UI Emoji" font-size="36px" fill="#1e1e1e" text-anchor="start" style="white-space: pre;" direction="ltr" dominant-baseline="text-before-edge">LCD</text></g><g transform="translate(1817 1094) rotate(0 172.83604431152344 22.5)"><text x="0" y="0" font-family="Virgil, Segoe UI Emoji" font-size="36px" fill="#1e1e1e" text-anchor="start" style="white-space: pre;" direction="ltr" dominant-baseline="text-before-edge">I2C Display Module</text></g><g transform="translate(1321 1043) rotate(0 62.33403015136719 45)"><text x="62.33403015136719" y="0" font-family="Virgil, Segoe UI Emoji" font-size="36px" fill="#1e1e1e" text-anchor="middle" style="white-space: pre;" direction="ltr" dominant-baseline="text-before-edge">Arduino</text><text x="62.33403015136719" y="45" font-family="Virgil, Segoe UI Emoji" font-size="36px" fill="#1e1e1e" text-anchor="middle" style="white-space: pre;" direction="ltr" dominant-baseline="text-before-edge">Mega</text></g><g stroke-linecap="round" transform="translate(1246 1531) rotate(0 154.5 163.5)"><path d="M32 0 C107.74 -0.53, 183.32 2.33, 277 0 C300.09 2.12, 305.94 12.68, 309 32 C312.8 101.1, 312.41 168.97, 309 295 C306.96 316.26, 300.05 328.18, 277 327 C221.13 328.83, 169.49 323.98, 32 327 C9.84 324.91, -0.19 313.1, 0 295 C3.38 192.15, -0.07 86.89, 0 32 C2.7 10.29, 10.98 -0.06, 32 0" stroke="none" stroke-width="0" fill="#ffec99"></path><path d="M32 0 C87.05 1.8, 143.85 1.11, 277 0 M32 0 C95.25 0.46, 157.51 0.61, 277 0 M277 0 C296.49 1.62, 308.21 8.86, 309 32 M277 0 C297.08 1.99, 307.14 11.75, 309 32 M309 32 C311.04 130.64, 310.88 226.89, 309 295 M309 32 C309.27 121.01, 309.55 208.49, 309 295 M309 295 C310.59 316.7, 299.03 327.56, 277 327 M309 295 C307.07 316.24, 297.8 325.56, 277 327 M277 327 C183.82 326.97, 93.51 325.52, 32 327 M277 327 C215.26 327.96, 151.58 329.43, 32 327 M32 327 C9.86 327.27, 1.59 317.25, 0 295 M32 327 C9.44 327.25, -2.22 317.76, 0 295 M0 295 C-1.03 197.52, -0.21 101.87, 0 32 M0 295 C2.24 231.68, 0.75 167.36, 0 32 M0 32 C-1.2 11.31, 12.32 -0.08, 32 0 M0 32 C-1.85 12.61, 12.33 1.09, 32 0" stroke="#1e1e1e" stroke-width="2" fill="none"></path></g><g transform="translate(1335 1677) rotate(0 63.468017578125 22.5)"><text x="0" y="0" font-family="Virgil, Segoe UI Emoji" font-size="36px" fill="#1e1e1e" text-anchor="start" style="white-space: pre;" direction="ltr" dominant-baseline="text-before-edge">KeyPad</text></g><g stroke-linecap="round" transform="translate(1074 441) rotate(0 152 67)"><path d="M32 0 C115.63 5.52, 198.32 5.45, 272 0 C291.08 -1.81, 303.31 11.43, 304 32 C303.89 47.76, 303.18 64.56, 304 102 C305.66 120.87, 294.13 131.41, 272 134 C219.55 133.78, 165.58 136.16, 32 134 C13.28 134.32, -1.3 120.22, 0 102 C2.23 84.51, 1.44 74.62, 0 32 C-2.19 10, 7.78 -3.15, 32 0" stroke="none" stroke-width="0" fill="#ffec99"></path><path d="M32 0 C110.71 -1.61, 193.17 0.65, 272 0 M32 0 C88.95 0.77, 147.66 0.69, 272 0 M272 0 C293.22 -1.52, 302.27 10.69, 304 32 M272 0 C292.58 1.29, 301.8 11.11, 304 32 M304 32 C305.91 56.06, 303.58 77.58, 304 102 M304 32 C305.02 58.85, 304.67 84.54, 304 102 M304 102 C303.81 123.01, 294.75 134.89, 272 134 M304 102 C305.75 122.38, 293.99 133.08, 272 134 M272 134 C204.4 132.43, 136.89 133.31, 32 134 M272 134 C181.55 135.38, 92.42 134.41, 32 134 M32 134 C10.23 132.45, -0.4 123.27, 0 102 M32 134 C9.54 132.59, 1.77 124.37, 0 102 M0 102 C-1.72 85.54, 1.51 69.06, 0 32 M0 102 C0.16 83.77, -0.44 66.63, 0 32 M0 32 C0.3 10.68, 10.09 -1.77, 32 0 M0 32 C2.09 12.86, 8.7 -0.62, 32 0" stroke="#1e1e1e" stroke-width="2" fill="none"></path></g><g transform="translate(1081.4519653320312 489) rotate(0 145.54803466796875 22.5)"><text x="145.54803466796875" y="0" font-family="Virgil, Segoe UI Emoji" font-size="36px" fill="#1e1e1e" text-anchor="middle" style="white-space: pre;" direction="ltr" dominant-baseline="text-before-edge">Motor Controller</text></g><g stroke-linecap="round" transform="translate(1433 437) rotate(0 152 67)"><path d="M32 0 C86.95 -0.42, 147.93 -5.46, 272 0 C295.73 1.93, 304.17 9.98, 304 32 C306.61 55.1, 301.89 82.72, 304 102 C302.31 124.89, 291.26 132.61, 272 134 C217.27 134.72, 164.57 131.85, 32 134 C7.08 130.9, 0.21 124.4, 0 102 C3.07 86.6, 2.77 66.39, 0 32 C2.04 11.61, 7.19 2.57, 32 0" stroke="none" stroke-width="0" fill="#ffec99"></path><path d="M32 0 C90.57 -0.26, 152.83 0.02, 272 0 M32 0 C102.06 1.02, 172.24 -0.12, 272 0 M272 0 C294.65 0.27, 302.36 11.01, 304 32 M272 0 C293.22 -2.01, 305.24 12.14, 304 32 M304 32 C302.6 50.3, 303.15 71.17, 304 102 M304 32 C304.3 53.11, 303.8 76.07, 304 102 M304 102 C303.88 122.69, 294.28 132.08, 272 134 M304 102 C305.76 123.19, 292.6 132.82, 272 134 M272 134 C198.11 133.85, 125.45 134.88, 32 134 M272 134 C202.17 132.62, 132.74 133.16, 32 134 M32 134 C12.16 135.97, -0.98 124.36, 0 102 M32 134 C11.3 134.91, 0.22 125.2, 0 102 M0 102 C1.13 82.27, 1.13 64.47, 0 32 M0 102 C-0.36 78.75, -0.57 56.1, 0 32 M0 32 C1.56 9.2, 12.23 1.33, 32 0 M0 32 C1.65 10.57, 10.07 2.29, 32 0" stroke="#1e1e1e" stroke-width="2" fill="none"></path></g><g transform="translate(1440.4519653320312 485) rotate(0 145.54803466796875 22.5)"><text x="145.54803466796875" y="0" font-family="Virgil, Segoe UI Emoji" font-size="36px" fill="#1e1e1e" text-anchor="middle" style="white-space: pre;" direction="ltr" dominant-baseline="text-before-edge">Motor Controller</text></g><g stroke-linecap="round" transform="translate(1103 10) rotate(0 83 147.5)"><path d="M32 0 C49.78 -1.7, 74.6 0.99, 134 0 C155.62 0.54, 162.76 10.35, 166 32 C165.38 80.38, 165.69 126.02, 166 263 C168.6 287.24, 156.24 294.2, 134 295 C96.46 291.77, 63.18 292.62, 32 295 C11.86 295.25, -1.85 284.92, 0 263 C-0.65 187.84, -1.7 116.71, 0 32 C1.22 7.99, 14.22 0.6, 32 0" stroke="none" stroke-width="0" fill="#ffc9c9"></path><path d="M32 0 C67.76 -0.58, 101.21 1.9, 134 0 M32 0 C62.82 0.18, 92.12 0.37, 134 0 M134 0 C154.73 -0.37, 166.74 12.34, 166 32 M134 0 C153.41 -1.3, 167.57 11.07, 166 32 M166 32 C165.28 106.84, 163.58 178.83, 166 263 M166 32 C167.19 123.39, 166.55 214.95, 166 263 M166 263 C165.47 283.42, 154.14 296.98, 134 295 M166 263 C165.15 285.66, 156.16 297.26, 134 295 M134 295 C94.53 294.55, 53.23 293.49, 32 295 M134 295 C111.19 294.88, 89.75 295.51, 32 295 M32 295 C9.03 294.3, -0.42 285.45, 0 263 M32 295 C11.16 293.06, -1.5 284.73, 0 263 M0 263 C-0.08 208.73, -0.86 156.61, 0 32 M0 263 C-1.13 201.27, -0.91 139.2, 0 32 M0 32 C-0.43 8.96, 8.69 -1.16, 32 0 M0 32 C1.55 10.47, 8.81 0.68, 32 0" stroke="#1e1e1e" stroke-width="2" fill="none"></path></g><g transform="translate(1117.0779724121094 89) rotate(0 68.92202758789062 67.5)"><text x="68.92202758789062" y="0" font-family="Virgil, Segoe UI Emoji" font-size="36px" fill="#1e1e1e" text-anchor="middle" style="white-space: pre;" direction="ltr" dominant-baseline="text-before-edge">Car </text><text x="68.92202758789062" y="45" font-family="Virgil, Segoe UI Emoji" font-size="36px" fill="#1e1e1e" text-anchor="middle" style="white-space: pre;" direction="ltr" dominant-baseline="text-before-edge">Locking </text><text x="68.92202758789062" y="90" font-family="Virgil, Segoe UI Emoji" font-size="36px" fill="#1e1e1e" text-anchor="middle" style="white-space: pre;" direction="ltr" dominant-baseline="text-before-edge">Motor</text></g><g stroke-linecap="round" transform="translate(1292 10.5) rotate(0 83 147.5)"><path d="M32 0 C65.43 3.98, 99.74 0.34, 134 0 C152.58 -3.28, 164.63 7.67, 166 32 C168.64 85.06, 166.9 136.84, 166 263 C165.16 286.23, 155.05 297.51, 134 295 C106.99 296.42, 74.05 295.32, 32 295 C12.74 298.43, -0.04 280.9, 0 263 C-1.08 191.9, -3.88 117.68, 0 32 C-3.17 12.52, 12.75 2.94, 32 0" stroke="none" stroke-width="0" fill="#ffc9c9"></path><path d="M32 0 C61.98 -0.31, 89.74 0.44, 134 0 M32 0 C57.86 1.42, 85.56 1.24, 134 0 M134 0 C153.64 -1.42, 165.78 9.84, 166 32 M134 0 C154.66 -1.53, 165.95 11.13, 166 32 M166 32 C165.13 90.33, 164.94 144.37, 166 263 M166 32 C164.55 113.83, 164.62 196.86, 166 263 M166 263 C164.96 286.2, 156.5 293.21, 134 295 M166 263 C165.34 286.02, 153.4 292.83, 134 295 M134 295 C109.78 294.46, 85.07 295.93, 32 295 M134 295 C107.75 295.18, 80.29 294.59, 32 295 M32 295 C11.37 295.08, -1.28 284.7, 0 263 M32 295 C9.16 296.39, -2.03 284.39, 0 263 M0 263 C1.48 206.01, -0.64 151.57, 0 32 M0 263 C-1.63 200.39, -1.76 138.43, 0 32 M0 32 C0.61 8.81, 9.75 0.19, 32 0 M0 32 C-1.7 8.38, 9.21 2.08, 32 0" stroke="#1e1e1e" stroke-width="2" fill="none"></path></g><g transform="translate(1306.0779724121094 89.5) rotate(0 68.92202758789062 67.5)"><text x="68.92202758789062" y="0" font-family="Virgil, Segoe UI Emoji" font-size="36px" fill="#1e1e1e" text-anchor="middle" style="white-space: pre;" direction="ltr" dominant-baseline="text-before-edge">Car </text><text x="68.92202758789062" y="45" font-family="Virgil, Segoe UI Emoji" font-size="36px" fill="#1e1e1e" text-anchor="middle" style="white-space: pre;" direction="ltr" dominant-baseline="text-before-edge">Locking </text><text x="68.92202758789062" y="90" font-family="Virgil, Segoe UI Emoji" font-size="36px" fill="#1e1e1e" text-anchor="middle" style="white-space: pre;" direction="ltr" dominant-baseline="text-before-edge">Motor</text></g><g stroke-linecap="round" transform="translate(1505 10.5) rotate(0 83 147.5)"><path d="M32 0 C51.81 -2.17, 77.7 -2.58, 134 0 C158.36 2.55, 166.97 14.24, 166 32 C169.99 95.35, 167.43 157.91, 166 263 C167.76 286.88, 152.94 296.45, 134 295 C94.08 295.3, 64.35 296.03, 32 295 C13.22 295.27, -0.76 281.2, 0 263 C0.67 212.01, -3.95 162.47, 0 32 C0.28 13.25, 7.97 -3.18, 32 0" stroke="none" stroke-width="0" fill="#ffc9c9"></path><path d="M32 0 C57.01 2.3, 85.69 1.95, 134 0 M32 0 C53.57 -0.18, 75.3 0.09, 134 0 M134 0 C155.74 -1.08, 165.88 11.86, 166 32 M134 0 C154.31 2.07, 164.73 8.97, 166 32 M166 32 C164.41 113.07, 164.54 196.54, 166 263 M166 32 C167.06 89.01, 168.45 145.8, 166 263 M166 263 C164.11 283.06, 153.58 295.51, 134 295 M166 263 C165.87 283.41, 154.52 295.76, 134 295 M134 295 C108.41 295.62, 80.41 294.42, 32 295 M134 295 C99.98 293.69, 66.2 293.46, 32 295 M32 295 C10.72 293.8, -0.63 282.73, 0 263 M32 295 C11.83 292.96, -1.71 283.7, 0 263 M0 263 C-1.49 200.03, -1.74 138.37, 0 32 M0 263 C1.9 185.99, 0.97 109.71, 0 32 M0 32 C1.81 11.61, 8.94 -1.53, 32 0 M0 32 C-1.27 12.31, 8.69 -0.68, 32 0" stroke="#1e1e1e" stroke-width="2" fill="none"></path></g><g transform="translate(1519.0779724121094 89.5) rotate(0 68.92202758789062 67.5)"><text x="68.92202758789062" y="0" font-family="Virgil, Segoe UI Emoji" font-size="36px" fill="#1e1e1e" text-anchor="middle" style="white-space: pre;" direction="ltr" dominant-baseline="text-before-edge">Car </text><text x="68.92202758789062" y="45" font-family="Virgil, Segoe UI Emoji" font-size="36px" fill="#1e1e1e" text-anchor="middle" style="white-space: pre;" direction="ltr" dominant-baseline="text-before-edge">Locking </text><text x="68.92202758789062" y="90" font-family="Virgil, Segoe UI Emoji" font-size="36px" fill="#1e1e1e" text-anchor="middle" style="white-space: pre;" direction="ltr" dominant-baseline="text-before-edge">Motor</text></g><g stroke-linecap="round"><g transform="translate(1153 302) rotate(0 -1 69.5)"><path d="M-0.09 0.37 C-0.52 23.44, -2.81 115.49, -3.11 138.45 M-1.59 -0.48 C-1.63 22.74, -0.82 116.45, -0.98 139.7" stroke="#1e1e1e" stroke-width="2" fill="none"></path></g></g><mask></mask><g stroke-linecap="round"><g transform="translate(1187.5999646183104 301.39452729558576) rotate(0 -1 69.5)"><path d="M-0.45 0.73 C-0.65 24, -0.61 115.53, -0.88 138.65 M1.52 0.06 C1.23 23.59, -0.51 117.13, -1.23 140" stroke="#1e1e1e" stroke-width="2" fill="none"></path></g></g><mask></mask><g stroke-linecap="round"><g transform="translate(1318.4981021634956 306.4244589583855) rotate(0 -1 69.5)"><path d="M-0.53 -0.07 C-0.88 22.89, -2.95 114.93, -3.06 138.05 M1.4 -1.15 C1.49 21.91, -0.41 115.6, -0.9 139.1" stroke="#1e1e1e" stroke-width="2" fill="none"></path></g></g><mask></mask><g stroke-linecap="round"><g transform="translate(1353.098066781806 305.81898625397133) rotate(0 -1 69.5)"><path d="M-1.06 -0.95 C-1.17 22.18, -0.94 115.46, -1.19 138.66 M0.59 1.17 C0.44 24.47, -1.01 117.01, -1.71 140.01" stroke="#1e1e1e" stroke-width="2" fill="none"></path></g></g><mask></mask><g stroke-linecap="round"><g transform="translate(1572.4981021634956 307.4244589583855) rotate(0 -1 69.5)"><path d="M-1.06 -0.74 C-1.32 22.15, -2.12 115.26, -2.4 138.5 M0.58 1.48 C0.2 25.05, -3.43 116.71, -3.56 139.77" stroke="#1e1e1e" stroke-width="2" fill="none"></path></g></g><mask></mask><g stroke-linecap="round"><g transform="translate(1607.098066781806 306.81898625397133) rotate(0 -1 69.5)"><path d="M-0.4 -0.5 C-0.67 22.73, -2.47 115.24, -2.71 138.69 M1.59 -1.81 C1.8 21.67, 0.31 116.68, -0.38 140.06" stroke="#1e1e1e" stroke-width="2" fill="none"></path></g></g><mask></mask><g stroke-linecap="round"><g transform="translate(1267 574) rotate(0 0.5 140.5)"><path d="M0.72 0.88 C1.09 47.66, 2.11 234.9, 2.04 281.71 M-0.36 0.3 C-0.04 47.26, 1.11 233.38, 1.63 279.96" stroke="#1e1e1e" stroke-width="2" fill="none"></path></g></g><mask></mask><g stroke-linecap="round"><g transform="translate(1286.1587075293162 573.9952698772587) rotate(0 0.5 140.5)"><path d="M-1.19 -0.79 C-1.25 46.18, -0.13 234.92, 0.07 281.97 M0.39 1.4 C0.66 48.05, 1.95 234.02, 2.29 280.35" stroke="#1e1e1e" stroke-width="2" fill="none"></path></g></g><mask></mask><g stroke-linecap="round"><g transform="translate(1304.45597518492 576.4179153373651) rotate(0 0.5 140.5)"><path d="M1.18 0.8 C1.49 47.27, 1.35 233.31, 1.13 280.03 M0.34 0.17 C0.56 47.27, -0.06 234, 0.26 281.06" stroke="#1e1e1e" stroke-width="2" fill="none"></path></g></g><mask></mask><g stroke-linecap="round"><g transform="translate(1323.6146827142363 576.4131852146238) rotate(0 0.5 140.5)"><path d="M0.13 -0.97 C-0.08 45.76, -0.28 234.29, -0.09 281.13 M-1.26 1.14 C-1.22 48.01, 1.73 236.1, 2.04 282.73" stroke="#1e1e1e" stroke-width="2" fill="none"></path></g></g><mask></mask><g stroke-linecap="round"><g transform="translate(1461.8497708450698 572.8256194376014) rotate(0 0.5 140.5)"><path d="M-0.05 -0.72 C0.22 46.2, 0.75 234.83, 1.03 281.81 M-1.53 1.52 C-1.37 48.07, -0.36 233.27, 0.09 280.12" stroke="#1e1e1e" stroke-width="2" fill="none"></path></g></g><mask></mask><g stroke-linecap="round"><g transform="translate(1481.008478374386 572.8208893148601) rotate(0 0.5 140.5)"><path d="M0.03 0.81 C0.31 47.79, 1.28 234.48, 1.64 281.18 M-1.42 0.19 C-1.23 47.46, 0.45 235.79, 1.03 282.81" stroke="#1e1e1e" stroke-width="2" fill="none"></path></g></g><mask></mask><g stroke-linecap="round"><g transform="translate(1499.3057460299897 575.2435347749665) rotate(0 0.5 140.5)"><path d="M0.64 0.18 C1 46.88, 1.99 234.23, 2.18 281.02 M-0.48 -0.77 C-0.18 46.07, 1.53 235.4, 1.86 282.57" stroke="#1e1e1e" stroke-width="2" fill="none"></path></g></g><mask></mask><g stroke-linecap="round"><g transform="translate(1518.464453559306 575.2388046522252) rotate(0 0.5 140.5)"><path d="M1.18 0.02 C1.38 46.81, 1.66 234.22, 1.8 280.94 M0.34 -1.02 C0.39 45.96, 1.04 235.39, 1.28 282.45" stroke="#1e1e1e" stroke-width="2" fill="none"></path></g></g><mask></mask><g stroke-linecap="round"><g transform="translate(1664.1264715005118 967.4572000616259) rotate(89.99999999999994 0.4230021455414885 118.86360289715465)"><path d="M0.18 -1.04 C0.4 38.74, 1.55 197.95, 1.52 237.9 M-1.18 1.02 C-1.08 41.1, 0.33 200.23, 0.93 239.53" stroke="#1e1e1e" stroke-width="2" fill="none"></path></g></g><mask></mask><g stroke-linecap="round"><g transform="translate(1663.6998317258567 984.6941895110208) rotate(89.99999999999994 0.4230021455414885 118.86360289715464)"><path d="M0.67 0.18 C0.64 40.13, -0.06 199.01, -0.03 238.67 M-0.43 -0.78 C-0.11 38.94, 2.13 197.58, 2.23 237.04" stroke="#1e1e1e" stroke-width="2" fill="none"></path></g></g><mask></mask><g stroke-linecap="round"><g transform="translate(1662.2207993092436 998.9785773545409) rotate(89.99999999999994 0.4230021455414885 118.86360289715464)"><path d="M-0.87 0.94 C-0.83 40.6, 0.68 198.6, 0.9 238.13 M0.87 0.39 C0.7 39.66, 0.21 196.95, -0.01 236.21" stroke="#1e1e1e" stroke-width="2" fill="none"></path></g></g><mask></mask><g stroke-linecap="round"><g transform="translate(1663.0986388117772 1015.1496266508793) rotate(89.99999999999994 0.4230021455414885 118.86360289715464)"><path d="M0.06 0.4 C0.29 39.93, 0.31 198.39, 0.49 238.12 M-1.37 -0.44 C-1.26 38.64, -0.97 196.63, -0.64 236.2" stroke="#1e1e1e" stroke-width="2" fill="none"></path></g></g><mask></mask><g stroke-linecap="round"><g transform="translate(2194 1073) rotate(0 73.5 -74)"><path d="M0.95 -0.03 C25.42 -24.7, 123.12 -122.74, 147.48 -147.33 M-0.01 -1.1 C24.29 -26.17, 122.37 -124.34, 146.78 -149.11" stroke="#1e1e1e" stroke-width="2" fill="none"></path></g></g><mask></mask><g stroke-linecap="round"><g transform="translate(2196 1078) rotate(0 73 -64.5)"><path d="M-0.98 0.71 C23.59 -20.73, 122.16 -106.64, 146.47 -128.2 M0.71 0.04 C25.24 -21.77, 121.35 -108.09, 145.77 -129.9" stroke="#1e1e1e" stroke-width="2" fill="none"></path></g></g><mask></mask><g stroke-linecap="round"><g transform="translate(2195 1090) rotate(0 73 -56)"><path d="M-0.39 -0.71 C23.92 -19.42, 120.47 -94.51, 144.97 -112.95 M1.6 1.53 C26.35 -17, 123.05 -92.77, 147.14 -111.91" stroke="#1e1e1e" stroke-width="2" fill="none"></path></g></g><mask></mask><g stroke-linecap="round"><g transform="translate(2195 1103) rotate(0 73 -45.5)"><path d="M-0.12 0.34 C23.85 -14.68, 120.66 -75.59, 144.98 -90.88 M-1.64 -0.53 C22.59 -15.26, 122.73 -74.32, 147.16 -89.28" stroke="#1e1e1e" stroke-width="2" fill="none"></path></g></g><mask></mask><g stroke-linecap="round"><g transform="translate(2198 1111) rotate(0 72.5 -38.5)"><path d="M0.09 -0.71 C24.18 -13.3, 120.56 -63.63, 144.6 -76.45 M-1.32 1.53 C22.57 -11.34, 119.36 -65.26, 143.44 -78.28" stroke="#1e1e1e" stroke-width="2" fill="none"></path></g></g><mask></mask><g stroke-linecap="round"><g transform="translate(2196 1122) rotate(0 71 -34)"><path d="M-1.08 0.51 C22.51 -11.01, 117.77 -56.52, 141.82 -68.06 M0.55 -0.26 C23.95 -11.07, 117.03 -55.3, 140.78 -66.55" stroke="#1e1e1e" stroke-width="2" fill="none"></path></g></g><mask></mask><g stroke-linecap="round"><g transform="translate(2197 1126) rotate(0 70.5 -25)"><path d="M0.63 -0.73 C23.81 -9.18, 116.83 -42.69, 140.26 -50.82 M-0.51 1.5 C22.97 -6.8, 119.08 -40.86, 142.58 -49.71" stroke="#1e1e1e" stroke-width="2" fill="none"></path></g></g><mask></mask><g stroke-linecap="round"><g transform="translate(2198 1132) rotate(0 71 -18)"><path d="M-0.6 -0.69 C23.16 -6.54, 118.7 -29.67, 142.34 -35.61 M1.29 1.57 C24.94 -4.62, 117.83 -31.4, 141.57 -37.52" stroke="#1e1e1e" stroke-width="2" fill="none"></path></g></g><mask></mask><g stroke-linecap="round"><g transform="translate(2195 1142) rotate(0 72 -14.5)"><path d="M-0.35 -0.92 C23.56 -5.57, 119.28 -23.68, 143.47 -28.53 M1.66 1.2 C25.37 -3.74, 118.44 -25.33, 142.24 -30.41" stroke="#1e1e1e" stroke-width="2" fill="none"></path></g></g><mask></mask><g stroke-linecap="round"><g transform="translate(2197 1146) rotate(0 70 -6.5)"><path d="M0.02 -0.84 C23.33 -2.86, 115.52 -10.59, 138.84 -12.46 M-1.42 1.33 C22.33 -1.01, 117.52 -11.76, 140.94 -14.3" stroke="#1e1e1e" stroke-width="2" fill="none"></path></g></g><mask></mask><g stroke-linecap="round"><g transform="translate(2204.24797694353 1153) rotate(0 67.87601152823515 4)"><path d="M1.1 0.73 C1.14 0.57, -21.29 -1.32, 1.09 0.06 C23.48 1.44, 112.79 7.58, 135.42 9.02 M0.22 0.07 C0.12 0.64, -21.66 0.43, 0.72 1.62 C23.1 2.81, 112.26 6.4, 134.48 7.22" stroke="#1e1e1e" stroke-width="2" fill="none"></path></g></g><mask></mask><g stroke-linecap="round"><g transform="translate(2189 1160) rotate(0 74.5 18)"><path d="M-0.45 0.08 C24.45 6.37, 124.19 30.92, 149.15 37 M1.52 -0.93 C26.3 5.12, 123.76 29.5, 148.27 35.4" stroke="#1e1e1e" stroke-width="2" fill="none"></path></g></g><mask></mask><g stroke-linecap="round"><g transform="translate(2184 1169) rotate(0 78 28)"><path d="M0.19 0.81 C26.46 10.2, 130.96 46.64, 157.12 55.73 M-1.18 0.19 C25.09 9.81, 130.4 47.77, 156.76 57.13" stroke="#1e1e1e" stroke-width="2" fill="none"></path></g></g><mask></mask><g stroke-linecap="round"><g transform="translate(2179 1171) rotate(0 79 37)"><path d="M-1.08 -1.12 C25.45 10.86, 131.81 60.56, 158.51 73.01 M0.56 0.91 C27.04 13.51, 131.44 61.73, 157.83 74.03" stroke="#1e1e1e" stroke-width="2" fill="none"></path></g></g><mask></mask><g stroke-linecap="round"><g transform="translate(2176 1177) rotate(0 81.5 45)"><path d="M-0.61 0.98 C26.5 16.08, 135.44 75.56, 162.7 90.21 M1.27 0.45 C28.2 15.19, 134.78 73.35, 161.59 88.2" stroke="#1e1e1e" stroke-width="2" fill="none"></path></g></g><mask></mask><g stroke-linecap="round"><g transform="translate(2190 1163) rotate(0 75.5 23.5)"><path d="M0.56 0.3 C25.83 8.22, 126.01 39.2, 150.94 47.1 M-0.6 -0.59 C24.56 7.58, 124.43 40.98, 149.96 48.69" stroke="#1e1e1e" stroke-width="2" fill="none"></path></g></g><mask></mask><g stroke-linecap="round"><g transform="translate(1382.9017785559022 1349.846823280589) rotate(179.9999999999999 0.3198139132813367 89.8677096320593)"><path d="M0.83 -0.05 C0.81 30.11, 0.4 150.83, 0.4 180.84 M-0.19 -1.12 C-0.44 28.74, -0.73 148.86, -0.67 179.3" stroke="#1e1e1e" stroke-width="2" fill="none"></path></g></g><mask></mask><g stroke-linecap="round"><g transform="translate(1369.924619368469 1348.730098534781) rotate(179.9999999999999 0.3198139132813367 89.8677096320593)"><path d="M-0.24 1.11 C-0.24 31.12, 0.57 150.22, 0.84 180.06 M-1.82 0.64 C-2.03 30.29, -0.48 148.55, 0 178.1" stroke="#1e1e1e" stroke-width="2" fill="none"></path></g></g><mask></mask><g stroke-linecap="round"><g transform="translate(1359.0886593039813 1348.5142351903287) rotate(179.9999999999999 0.3198139132813367 89.8677096320593)"><path d="M0.2 0.32 C0.48 30.15, 1.2 150.09, 1.4 180.11 M-1.15 -0.56 C-0.95 29.42, 0.49 148.35, 0.85 178.18" stroke="#1e1e1e" stroke-width="2" fill="none"></path></g></g><mask></mask><g stroke-linecap="round"><g transform="translate(1346.3824399985892 1349.3396406561903) rotate(179.9999999999999 0.3198139132813367 89.8677096320593)"><path d="M0.76 0.38 C0.96 30.4, 1.54 150.72, 1.38 180.45 M-0.3 -0.47 C-0.22 29.18, 0.4 148.69, 0.83 178.7" stroke="#1e1e1e" stroke-width="2" fill="none"></path></g></g><mask></mask><g stroke-linecap="round"><g transform="translate(1438.842697367345 1350.8113633390644) rotate(179.9999999999999 0.3198139132813367 89.8677096320593)"><path d="M0.28 -0.69 C0.36 29.35, 1.24 150.59, 1.2 180.76 M-1.03 1.56 C-1.12 31.24, 0.55 149.72, 0.54 179.17" stroke="#1e1e1e" stroke-width="2" fill="none"></path></g></g><mask></mask><g stroke-linecap="round"><g transform="translate(1425.8655381799117 1349.6946385932565) rotate(179.9999999999999 0.3198139132813367 89.8677096320593)"><path d="M0.56 1.02 C0.52 31.19, 0.01 150.71, 0.03 180.3 M-0.61 0.51 C-0.27 30.38, 2.34 148.69, 2.43 178.48" stroke="#1e1e1e" stroke-width="2" fill="none"></path></g></g><mask></mask><g stroke-linecap="round"><g transform="translate(1415.029578115424 1349.4787752488041) rotate(179.9999999999999 0.3198139132813367 89.8677096320593)"><path d="M-0.61 0.57 C-0.59 30.15, 0.55 148.82, 0.68 178.55 M1.28 -0.18 C1.09 30.02, 0.1 149.46, -0.25 179.46" stroke="#1e1e1e" stroke-width="2" fill="none"></path></g></g><mask></mask><g stroke-linecap="round"><g transform="translate(1402.3233588100325 1350.3041807146656) rotate(179.9999999999999 0.3198139132813367 89.8677096320593)"><path d="M0.04 -1.19 C0.17 28.53, 0.09 148.65, 0.18 178.91 M-1.4 0.8 C-1.41 30.61, -1.21 150.43, -1.01 180.01" stroke="#1e1e1e" stroke-width="2" fill="none"></path></g></g><mask></mask><g stroke-linecap="round" transform="translate(738 938) rotate(0 129.5 82)"><path d="M32 0 C74.35 3.45, 120.52 3.79, 227 0 C245.76 0.59, 257.42 10.88, 259 32 C258.65 66.38, 260.56 106.86, 259 132 C261.5 153.87, 249.93 166, 227 164 C161.78 161.92, 105.93 162.7, 32 164 C14 164.36, 2.56 150.26, 0 132 C-4.22 97.91, -1.9 60.47, 0 32 C3.24 10.41, 7.56 -2.57, 32 0" stroke="none" stroke-width="0" fill="#ffec99"></path><path d="M32 0 C70.54 2.91, 113.17 2.58, 227 0 M32 0 C86.83 1.89, 140.29 2.46, 227 0 M227 0 C249.77 1.11, 258.44 11.84, 259 32 M227 0 C249.37 2.17, 260.41 11.16, 259 32 M259 32 C258.53 71.46, 258.98 108.15, 259 132 M259 32 C259.13 63.51, 259.1 94.37, 259 132 M259 132 C260.32 154.56, 249.7 162.74, 227 164 M259 132 C257.82 153.57, 248.78 165.08, 227 164 M227 164 C177.76 164.18, 127.81 161.39, 32 164 M227 164 C157.32 163.03, 88.74 162.87, 32 164 M32 164 C12.36 162.55, 0.26 152.14, 0 132 M32 164 C12.41 165.09, 1.99 151.31, 0 132 M0 132 C0.96 101.57, 1.46 73.53, 0 32 M0 132 C1.64 108.43, 0.87 83.45, 0 32 M0 32 C0.09 11.69, 10.9 1.95, 32 0 M0 32 C0.33 12.09, 10.35 -0.05, 32 0" stroke="#1e1e1e" stroke-width="2" fill="none"></path></g><g transform="translate(829.8779830932617 1276) rotate(0 40.12201690673828 22.5)"><text x="40.12201690673828" y="0" font-family="Virgil, Segoe UI Emoji" font-size="36px" fill="#1e1e1e" text-anchor="middle" style="white-space: pre;" direction="ltr" dominant-baseline="text-before-edge">HX711</text></g><g stroke-linecap="round"><g transform="translate(1115.2081783007734 874.0584292096848) rotate(89.99999999999994 0.4230021455414885 118.86360289715464)"><path d="M0.66 0.21 C0.74 39.83, 1.4 199.08, 1.54 238.59 M-0.45 -0.72 C-0.56 38.49, 0.7 197.08, 0.96 236.92" stroke="#1e1e1e" stroke-width="2" fill="none"></path></g></g><mask></mask><g stroke-linecap="round"><g transform="translate(1114.7815385261183 891.2954186590798) rotate(89.99999999999994 0.4230021455414885 118.86360289715464)"><path d="M0.7 0.87 C0.84 40.38, 1.43 197.86, 1.52 237.28 M-0.4 0.27 C-0.41 39.93, 0.75 198.87, 0.92 238.58" stroke="#1e1e1e" stroke-width="2" fill="none"></path></g></g><mask></mask><g stroke-linecap="round"><g transform="translate(1113.3025061095052 905.5798065025999) rotate(89.99999999999994 0.4230021455414885 118.86360289715464)"><path d="M0.67 -0.45 C0.76 38.97, 1.38 197.54, 1.21 237.39 M-0.43 -1.73 C-0.54 37.79, 0.07 198.99, 0.46 238.75" stroke="#1e1e1e" stroke-width="2" fill="none"></path></g></g><mask></mask><g stroke-linecap="round"><g transform="translate(1114.1803456120388 921.7508557989383) rotate(89.99999999999994 0.4230021455414885 118.86360289715464)"><path d="M0.37 -0.34 C0.2 39.51, -0.3 199, -0.35 238.64 M-0.9 -1.56 C-0.78 38, 1.15 196.96, 1.73 236.99" stroke="#1e1e1e" stroke-width="2" fill="none"></path></g></g><mask></mask><g stroke-linecap="round" transform="translate(241.39044608913287 946) rotate(0 129.5 82)"><path d="M32 0 C88.7 2.08, 141.65 1.43, 227 0 C248.35 -3.08, 256.23 7.79, 259 32 C255.89 54.49, 256.3 77.66, 259 132 C255.54 151.65, 250.23 165.45, 227 164 C151.69 159.02, 80.29 164.46, 32 164 C8.36 160.57, 1.85 152.56, 0 132 C-3.59 104.17, -2.05 80.17, 0 32 C-0.87 8.39, 8.96 1.45, 32 0" stroke="none" stroke-width="0" fill="#ffec99"></path><path d="M32 0 C101.08 -0.54, 164.84 -1.45, 227 0 M32 0 C103.11 0.21, 172.65 0.31, 227 0 M227 0 C246.39 -0.83, 259.9 12.01, 259 32 M227 0 C250.29 -1.09, 261.25 9.74, 259 32 M259 32 C260.01 52.47, 256.51 75.26, 259 132 M259 32 C259.52 62.35, 258.41 91.09, 259 132 M259 132 C257.22 153.82, 248.39 162.05, 227 164 M259 132 C259.55 153.16, 247.12 166.09, 227 164 M227 164 C173.1 167.04, 116.73 165.83, 32 164 M227 164 C151.18 164.1, 75.11 164.4, 32 164 M32 164 C10.57 164.21, 0.87 153.42, 0 132 M32 164 C8.9 163.04, 1.47 151.26, 0 132 M0 132 C-1.45 111.83, -1.67 91.63, 0 32 M0 132 C-0.27 94.8, -1.41 58.41, 0 32 M0 32 C-0.32 10.32, 11.31 1.27, 32 0 M0 32 C-1.45 9.8, 11.68 1.12, 32 0" stroke="#1e1e1e" stroke-width="2" fill="none"></path></g><g transform="translate(253.7884029372774 1276) rotate(0 118.60204315185547 22.5)"><text x="118.60204315185547" y="0" font-family="Virgil, Segoe UI Emoji" font-size="36px" fill="#1e1e1e" text-anchor="middle" style="white-space: pre;" direction="ltr" dominant-baseline="text-before-edge">Weight Scaler</text></g><g stroke-linecap="round"><g transform="translate(618.5986243899063 882.0584292096848) rotate(89.99999999999994 0.4230021455414743 118.86360289715464)"><path d="M-1.01 0.73 C-0.96 40.44, -0.62 197.87, -0.15 237.26 M0.66 0.06 C1.12 40.03, 1.9 198.89, 2.05 238.56" stroke="#1e1e1e" stroke-width="2" fill="none"></path></g></g><mask></mask><g stroke-linecap="round"><g transform="translate(618.1719846152512 899.2954186590798) rotate(89.99999999999994 0.4230021455414743 118.86360289715464)"><path d="M-0.99 -0.46 C-0.52 38.93, 1.5 197.47, 1.81 237.08 M0.69 -1.75 C1.17 37.72, 1.46 198.28, 1.37 238.28" stroke="#1e1e1e" stroke-width="2" fill="none"></path></g></g><mask></mask><g stroke-linecap="round"><g transform="translate(616.6929521986381 913.5798065025999) rotate(89.99999999999994 0.4230021455414743 118.86360289715464)"><path d="M0.97 -0.65 C1.28 38.96, 1.11 197.55, 0.89 237.19 M0.02 1.63 C0.26 41.43, -0.36 199.01, -0.03 238.45" stroke="#1e1e1e" stroke-width="2" fill="none"></path></g></g><mask></mask><g stroke-linecap="round"><g transform="translate(617.5707917011716 929.7508557989383) rotate(89.99999999999994 0.4230021455414743 118.86360289715464)"><path d="M0.05 -0.54 C-0.17 39.11, -0.55 197.38, -0.32 237.23 M-1.39 1.8 C-1.34 41.66, 1.4 199.37, 1.78 238.5" stroke="#1e1e1e" stroke-width="2" fill="none"></path></g></g><mask></mask><g transform="translate(816.865198325328 1000) rotate(0 61.83002471923828 22.5)"><text x="61.83002471923828" y="0" font-family="Virgil, Segoe UI Emoji" font-size="36px" fill="#1e1e1e" text-anchor="middle" style="white-space: pre;" direction="ltr" dominant-baseline="text-before-edge">A4988</text></g><g stroke-linecap="round"><g transform="translate(1116.9034013453397 1147.0584292096848) rotate(89.99999999999994 0.4230021455414885 118.86360289715464)"><path d="M-0.34 0.41 C-0.05 39.99, 1.85 198.66, 1.9 238.11 M1.68 -0.42 C1.9 38.74, 1.39 196.44, 1.5 236.18" stroke="#1e1e1e" stroke-width="2" fill="none"></path></g></g><mask></mask><g stroke-linecap="round"><g transform="translate(1116.4767615706846 1164.2954186590798) rotate(89.99999999999994 0.4230021455414885 118.86360289715464)"><path d="M1.05 0.38 C1.1 39.82, -0.19 197.64, -0.05 237.08 M0.14 -0.47 C0.6 39.09, 1.94 198.53, 2.19 238.28" stroke="#1e1e1e" stroke-width="2" fill="none"></path></g></g><mask></mask><g stroke-linecap="round"><g transform="translate(1114.9977291540715 1178.5798065026) rotate(89.99999999999994 0.4230021455414885 118.86360289715464)"><path d="M-0.9 -0.65 C-0.77 38.8, 1.7 197.18, 1.85 237.04 M0.83 1.63 C0.8 41.18, 1.15 199.06, 1.42 238.21" stroke="#1e1e1e" stroke-width="2" fill="none"></path></g></g><mask></mask><g stroke-linecap="round"><g transform="translate(1115.875568656605 1194.7508557989383) rotate(89.99999999999994 0.4230021455414885 118.86360289715464)"><path d="M1 -0.69 C1.15 39.17, -0.04 198.86, 0 238.48 M0.07 1.56 C0.67 41.14, 2.17 197.35, 2.27 236.76" stroke="#1e1e1e" stroke-width="2" fill="none"></path></g></g><mask></mask><g transform="translate(240.14963397744918 1006) rotate(0 126.93603515625 22.5)"><text x="126.93603515625" y="0" font-family="Virgil, Segoe UI Emoji" font-size="36px" fill="#1e1e1e" text-anchor="middle" style="white-space: pre;" direction="ltr" dominant-baseline="text-before-edge">Stepper Motor</text></g><g stroke-linecap="round"><g transform="translate(620.2938474344726 1155.0584292096848) rotate(89.99999999999994 0.4230021455414743 118.86360289715464)"><path d="M-1.19 0.33 C-1.1 40.23, 0.72 199.13, 0.94 238.74 M0.38 -0.54 C0.28 39.1, -0.33 197.15, 0.04 237.15" stroke="#1e1e1e" stroke-width="2" fill="none"></path></g></g><mask></mask><g stroke-linecap="round"><g transform="translate(619.8672076598175 1172.2954186590798) rotate(89.99999999999994 0.4230021455414743 118.86360289715464)"><path d="M0.09 1.01 C0.3 40.63, -0.06 198.54, 0.08 238.01 M-1.32 0.5 C-0.62 39.7, 2.13 196.25, 2.39 236.03" stroke="#1e1e1e" stroke-width="2" fill="none"></path></g></g><mask></mask><g stroke-linecap="round"><g transform="translate(618.3881752432044 1186.5798065026) rotate(89.99999999999994 0.4230021455414743 118.86360289715464)"><path d="M-0.77 0.28 C-0.63 39.75, 0.63 198.1, 0.94 237.83 M1.03 -0.62 C1.02 39.59, 0.14 199.86, 0.04 239.42" stroke="#1e1e1e" stroke-width="2" fill="none"></path></g></g><mask></mask><g stroke-linecap="round"><g transform="translate(619.266014745738 1202.7508557989383) rotate(89.99999999999994 0.4230021455414743 118.86360289715464)"><path d="M0.09 0.1 C0.4 39.83, 0.79 198.94, 1.06 238.65 M-1.32 -0.89 C-1.09 38.49, -0.23 197.48, 0.22 237.01" stroke="#1e1e1e" stroke-width="2" fill="none"></path></g></g><mask></mask><g stroke-linecap="round" transform="translate(10 273) rotate(0 219.5 128.5)"><path d="M32 0 C138.41 -4.99, 247.32 -2.26, 407 0 C425.57 2.35, 441.7 13.83, 439 32 C440 82.97, 437.08 138.28, 439 225 C437.96 243.96, 425.32 258.75, 407 257 C301.78 262.03, 197.81 258.39, 32 257 C9.74 256.8, 0.57 246.6, 0 225 C-0.84 173.76, 3.25 133, 0 32 C-0.48 13.81, 10.27 -2.71, 32 0" stroke="none" stroke-width="0" fill="#ffc9c9"></path><path d="M32 0 C166.09 1.73, 302.52 1.34, 407 0 M32 0 C158.94 2.05, 285.66 1.82, 407 0 M407 0 C428.54 -0.41, 438.38 11.73, 439 32 M407 0 C430.26 -1.33, 439.43 9.38, 439 32 M439 32 C440.71 76.29, 439.94 120.13, 439 225 M439 32 C439.52 74.73, 440.26 119.54, 439 225 M439 225 C437.32 246.77, 429.57 256.61, 407 257 M439 225 C438.46 244.09, 426.25 258.75, 407 257 M407 257 C267.15 255.99, 126.54 255.2, 32 257 M407 257 C295.73 256.09, 183.59 255.95, 32 257 M32 257 C11.68 258.46, -0.63 245.43, 0 225 M32 257 C9.71 258.11, -1.26 246.18, 0 225 M0 225 C3.38 168.49, 2.09 112.21, 0 32 M0 225 C-1.14 177.41, -1.64 131.43, 0 32 M0 32 C-0.07 10.94, 9.78 0.71, 32 0 M0 32 C1.78 12.33, 9.61 -0.59, 32 0" stroke="#1e1e1e" stroke-width="2" fill="none"></path></g><g transform="translate(115.4899673461914 375) rotate(0 111.5100326538086 22.5)"><text x="111.5100326538086" y="0" font-family="Virgil, Segoe UI Emoji" font-size="36px" fill="#1e1e1e" text-anchor="middle" style="white-space: pre;" direction="ltr" dominant-baseline="text-before-edge">Power Supply</text></g><g stroke-linecap="round" transform="translate(543 148) rotate(0 93.5 114)"><path d="M32 0 C63.85 1.31, 94.9 -4.31, 155 0 C178.48 -0.02, 186.24 9.9, 187 32 C182.24 71.4, 183.82 107.39, 187 196 C187.04 220.32, 176.88 230.58, 155 228 C106.98 228.41, 60.64 230.88, 32 228 C11.71 226.74, 2.75 220.4, 0 196 C-0.39 142.03, 0.25 79.15, 0 32 C0.03 9.63, 9.02 0.27, 32 0" stroke="none" stroke-width="0" fill="#ffec99"></path><path d="M32 0 C67.53 0.34, 102.95 1.14, 155 0 M32 0 C76.84 0.85, 121.04 0, 155 0 M155 0 C174.44 -1.91, 186.42 8.94, 187 32 M155 0 C175.98 0.21, 188.62 8.84, 187 32 M187 32 C187.13 69.46, 188.55 108.43, 187 196 M187 32 C187.4 66.2, 188.07 100.67, 187 196 M187 196 C188.71 215.4, 177.98 229.29, 155 228 M187 196 C186.54 219.25, 175.98 226.48, 155 228 M155 228 C109.62 227.76, 65.67 228.58, 32 228 M155 228 C111.34 228.1, 67.57 229.09, 32 228 M32 228 C10.6 229.96, 1.7 215.88, 0 196 M32 228 C12.6 227.34, 1.66 215.2, 0 196 M0 196 C-1.79 153.36, -2.28 111.75, 0 32 M0 196 C0.07 132.15, 0.13 69.7, 0 32 M0 32 C-0.64 10.15, 8.96 -0.08, 32 0 M0 32 C0.81 9, 10 -2.06, 32 0" stroke="#1e1e1e" stroke-width="2" fill="none"></path></g><g transform="translate(550.0859680175781 223) rotate(0 85.91403198242188 67.5)"><text x="85.91403198242188" y="0" font-family="Virgil, Segoe UI Emoji" font-size="36px" fill="#1e1e1e" text-anchor="middle" style="white-space: pre;" direction="ltr" dominant-baseline="text-before-edge">7805</text><text x="85.91403198242188" y="45" font-family="Virgil, Segoe UI Emoji" font-size="36px" fill="#1e1e1e" text-anchor="middle" style="white-space: pre;" direction="ltr" dominant-baseline="text-before-edge">Voltage</text><text x="85.91403198242188" y="90" font-family="Virgil, Segoe UI Emoji" font-size="36px" fill="#1e1e1e" text-anchor="middle" style="white-space: pre;" direction="ltr" dominant-baseline="text-before-edge">Regulator</text></g><g stroke-linecap="round"><g transform="translate(449 482) rotate(0 289 3.5)"><path d="M0.23 0.11 C96.46 1.37, 480.89 5.68, 577 7 M-1.1 -0.88 C95.52 0.63, 482.47 7.35, 579.18 8.54" stroke="#1e1e1e" stroke-width="2" fill="none"></path></g></g><mask></mask><g stroke-linecap="round"><g transform="translate(1025 487) rotate(0 -1.5 233.5)"><path d="M0.61 -1.06 C0.23 76.48, -1.46 387.98, -1.93 465.85 M-0.53 1 C-1 78.59, -1.98 389.11, -2.32 466.79" stroke="#1e1e1e" stroke-width="2" fill="none"></path></g></g><mask></mask><g stroke-linecap="round"><g transform="translate(1025 951) rotate(0 104.5 1.5)"><path d="M0.43 -0.05 C34.94 0.46, 173.27 3.29, 208.17 3.97 M-0.8 -1.12 C33.98 -1.01, 175.39 1.8, 210.44 2.35" stroke="#1e1e1e" stroke-width="2" fill="none"></path></g></g><mask></mask><g stroke-linecap="round"><g transform="translate(452.3291132118739 432.04745537927374) rotate(0 298.5 0)"><path d="M0.99 -1.04 C100.48 -0.87, 497.38 -0.05, 596.53 0.1 M0.05 1.02 C99.38 1.49, 495.64 1.68, 595.34 1.7" stroke="#e03131" stroke-width="2" fill="none"></path></g></g><mask></mask><g stroke-linecap="round"><g transform="translate(1049.3291132118738 432.04745537927374) rotate(0 -1.5 233.5)"><path d="M-0.47 0.1 C-1.31 78.09, -3.47 388.95, -4.09 466.85 M1.49 -0.89 C0.92 77.38, -1.38 390.59, -1.95 468.31" stroke="#e03131" stroke-width="2" fill="none"></path></g></g><mask></mask><g stroke-linecap="round"><g transform="translate(1042.3291132118738 901.0474553792737) rotate(0 97.5 1.5)"><path d="M-1.09 -0.15 C31.29 0.42, 160.95 3.16, 193.81 3.53 M0.54 -1.27 C33.31 -1.07, 163.34 0.99, 195.89 1.68" stroke="#e03131" stroke-width="2" fill="none"></path></g></g><mask></mask><g stroke-linecap="round"><g transform="translate(587 381) rotate(0 0 51)"><path d="M0.86 -0.87 C1.05 16.18, 0.91 84.69, 0.73 101.67 M-0.15 1.28 C-0.02 18.56, 0.32 86.28, 0.17 103.03" stroke="#1e1e1e" stroke-width="2" fill="none"></path></g></g><mask></mask><g stroke-linecap="round"><g transform="translate(654 376) rotate(0 0 26.5)"><path d="M-0.1 0.83 C-0.11 9.44, -0.01 43.25, 0.03 51.88 M-1.62 0.22 C-1.79 8.92, -1.07 43.92, -0.91 52.83" stroke="#1e1e1e" stroke-width="2" fill="none"></path></g></g><mask></mask><g stroke-linecap="round"><g transform="translate(691 371) rotate(0 0 21.5)"><path d="M-0.18 0.05 C-0.18 7.28, -0.02 36.28, -0.02 43.53 M0.74 -0.41 C0.66 6.68, -0.24 35.65, -0.46 42.83" stroke="#f08c00" stroke-width="2" fill="none"></path></g></g><mask></mask><g stroke-linecap="round"><g transform="translate(689 412) rotate(0 219 -3)"><path d="M-0.99 -0.28 C72.2 -1.19, 365.91 -3.76, 439.13 -4.84 M0.7 -1.47 C73.83 -2.74, 365.94 -5.63, 438.78 -6.35" stroke="#f08c00" stroke-width="2" fill="none"></path></g></g><mask></mask><g stroke-linecap="round"><g transform="translate(1196 403) rotate(0 53.5 0.5)"><path d="M0.14 0.88 C17.69 1.03, 88.3 0.45, 106.01 0.63 M-1.25 0.29 C16.61 0.65, 90.44 2.01, 108.2 1.97" stroke="#f08c00" stroke-width="2" fill="none"></path></g></g><mask></mask><g stroke-linecap="round"><g transform="translate(1363 402) rotate(0 81 -0.5)"><path d="M-0.97 -1.04 C26.01 -1.51, 133.84 -1.69, 161.18 -1.74 M0.73 1.02 C28.14 1.22, 136.44 -0.39, 163.46 -0.59" stroke="#f08c00" stroke-width="2" fill="none"></path></g></g><mask></mask><g stroke-linecap="round"><g transform="translate(1524 399) rotate(0 -0.5 18.5)"><path d="M0 0.11 C-0.04 6.22, -0.3 30.43, -0.55 36.67 M-0.66 -0.31 C-0.71 5.86, -0.79 31.02, -0.76 37.19" stroke="#f08c00" stroke-width="2" fill="none"></path></g></g><mask></mask><g stroke-linecap="round"><g transform="translate(1123 406) rotate(0 -0.5 15)"><path d="M-0.3 0.46 C-0.43 5.5, -0.69 24.94, -0.86 29.89 M0.55 0.23 C0.36 5.38, -0.83 25.71, -1.21 30.53" stroke="#f08c00" stroke-width="4" fill="none"></path></g></g><mask></mask><g transform="translate(1124.9142981546238 407.91429815462385) rotate(0 35.5 -25)" stroke="none"><path fill="#f08c00" d="M -2.47,0 Q -2.47,0 -2.47,-1.43 -2.47,-2.87 -2.50,-4.06 -2.53,-5.24 -2.52,-6.67 -2.51,-8.09 -1.83,-9.75 -1.15,-11.41 -0.94,-13.38 -0.74,-15.35 0.01,-16.96 0.77,-18.58 1.27,-19.78 1.77,-20.98 2.34,-23.16 2.90,-25.34 3.37,-26.46 3.84,-27.57 4.43,-29.63 5.01,-31.69 5.90,-33.47 6.79,-35.24 7.61,-36.08 8.43,-36.92 9.15,-38.03 9.87,-39.14 10.96,-39.96 12.05,-40.78 12.85,-41.73 13.65,-42.68 14.57,-43.43 15.49,-44.17 16.83,-45.12 18.18,-46.06 19.96,-46.87 21.73,-47.68 23.36,-48.32 24.99,-48.95 26.65,-49.62 28.30,-50.28 29.88,-50.87 31.46,-51.47 32.45,-51.88 33.44,-52.29 35.13,-52.76 36.83,-53.23 38.42,-53.29 40.01,-53.34 41.11,-53.37 42.21,-53.39 43.73,-53.42 45.25,-53.45 46.37,-53.43 47.49,-53.41 48.72,-52.93 49.96,-52.46 51.09,-51.92 52.22,-51.39 53.40,-50.74 54.58,-50.09 55.43,-49.39 56.28,-48.69 57.12,-47.86 57.97,-47.03 59.31,-46.16 60.66,-45.29 62.09,-44.26 63.51,-43.24 64.77,-41.62 66.02,-40.00 67.45,-38.60 68.87,-37.20 69.52,-35.99 70.18,-34.78 71.08,-33.45 71.97,-32.11 73.04,-30.52 74.10,-28.92 74.33,-27.42 74.57,-25.92 74.59,-24.84 74.61,-23.77 74.62,-22.25 74.62,-20.74 74.63,-19.24 74.63,-17.73 74.63,-16.23 74.63,-14.73 74.64,-12.86 74.64,-11.00 74.54,-10.41 74.45,-9.83 74.17,-9.31 73.90,-8.79 73.47,-8.38 73.04,-7.98 72.51,-7.73 71.97,-7.48 71.38,-7.42 70.80,-7.36 70.22,-7.48 69.65,-7.61 69.14,-7.91 68.64,-8.22 68.25,-8.67 67.87,-9.12 67.65,-9.66 67.44,-10.21 67.40,-10.80 67.37,-11.39 67.53,-11.96 67.69,-12.53 68.02,-13.01 68.35,-13.50 68.82,-13.86 69.29,-14.22 69.85,-14.40 70.41,-14.59 71.00,-14.59 71.59,-14.59 72.14,-14.40 72.70,-14.22 73.17,-13.86 73.64,-13.50 73.97,-13.01 74.30,-12.52 74.46,-11.96 74.62,-11.39 74.59,-10.80 74.55,-10.21 74.34,-9.66 74.12,-9.12 73.74,-8.67 73.35,-8.22 72.85,-7.91 72.34,-7.61 71.77,-7.48 71.19,-7.36 70.61,-7.42 70.02,-7.48 69.48,-7.73 68.95,-7.98 68.52,-8.38 68.09,-8.79 67.82,-9.31 67.54,-9.83 67.45,-10.41 67.35,-11.00 67.35,-11.00 67.35,-10.99 67.35,-13.86 67.36,-16.73 67.36,-18.23 67.36,-19.73 67.36,-21.22 67.37,-22.72 67.85,-24.13 68.34,-25.54 66.99,-26.96 65.64,-28.37 64.99,-29.98 64.35,-31.58 63.09,-32.89 61.83,-34.20 61.14,-35.35 60.45,-36.49 59.67,-37.25 58.90,-38.01 57.89,-38.55 56.88,-39.09 55.91,-40.04 54.94,-41.00 53.91,-41.63 52.88,-42.26 51.97,-43.12 51.06,-43.97 49.71,-44.89 48.35,-45.81 47.30,-46.17 46.26,-46.53 44.75,-46.55 43.25,-46.57 41.69,-46.59 40.13,-46.61 38.51,-46.63 36.89,-46.66 35.46,-46.05 34.03,-45.45 32.98,-45.01 31.94,-44.57 30.80,-44.11 29.66,-43.64 27.83,-43.10 26.00,-42.56 24.89,-42.13 23.77,-41.70 22.62,-41.12 21.47,-40.54 20.09,-39.75 18.71,-38.96 17.16,-37.28 15.62,-35.61 14.75,-34.91 13.89,-34.21 12.73,-32.72 11.58,-31.23 10.63,-29.94 9.68,-28.64 9.25,-27.01 8.82,-25.39 8.03,-23.58 7.23,-21.77 6.91,-20.40 6.59,-19.03 5.51,-16.89 4.43,-14.75 4.31,-13.29 4.19,-11.84 3.35,-9.85 2.51,-7.86 2.52,-6.55 2.53,-5.24 2.50,-4.06 2.47,-2.87 2.47,-1.43 2.47,0 2.43,0.29 2.40,0.59 2.29,0.87 2.19,1.14 2.02,1.39 1.85,1.64 1.62,1.83 1.40,2.03 1.14,2.17 0.87,2.31 0.58,2.38 0.29,2.45 -0.00,2.45 -0.29,2.45 -0.58,2.38 -0.87,2.31 -1.14,2.17 -1.40,2.03 -1.62,1.83 -1.85,1.64 -2.02,1.39 -2.19,1.14 -2.29,0.87 -2.40,0.59 -2.43,0.29 -2.47,-0.00 -2.47,-0.00 L -2.47,0 Z"></path></g><g transform="translate(1301 403) rotate(0 32 -30)" stroke="none"><path fill="#f08c00" d="M -2.41,0.48 Q -2.41,0.48 -2.69,-0.95 -2.98,-2.39 -3.11,-4.00 -3.25,-5.61 -3.39,-7.86 -3.54,-10.10 -3.57,-11.22 -3.61,-12.34 -3.61,-13.68 -3.62,-15.02 -3.61,-16.45 -3.59,-17.88 -3.60,-20.31 -3.60,-22.73 -3.58,-24.25 -3.56,-25.76 -3.57,-26.98 -3.59,-28.19 -3.61,-29.33 -3.63,-30.47 -2.94,-32.27 -2.24,-34.07 -1.71,-35.43 -1.18,-36.78 -0.65,-38.22 -0.12,-39.66 0.78,-41.30 1.69,-42.94 2.35,-43.98 3.00,-45.02 3.45,-46.29 3.90,-47.55 4.84,-49.03 5.78,-50.51 6.79,-51.74 7.81,-52.96 9.35,-53.96 10.89,-54.96 12.12,-56.06 13.35,-57.16 14.02,-58.06 14.69,-58.97 15.46,-59.86 16.23,-60.76 17.91,-61.44 19.59,-62.12 21.20,-62.43 22.82,-62.74 24.29,-62.83 25.76,-62.93 27.37,-62.97 28.98,-63.02 30.81,-62.60 32.63,-62.18 34.51,-61.34 36.38,-60.50 37.70,-59.97 39.02,-59.44 40.16,-59.35 41.31,-59.26 43.71,-58.26 46.11,-57.26 47.21,-56.82 48.31,-56.37 50.08,-55.35 51.85,-54.32 53.16,-53.23 54.47,-52.13 55.60,-50.61 56.73,-49.08 57.38,-47.48 58.03,-45.88 58.91,-44.96 59.79,-44.04 60.74,-43.08 61.68,-42.11 62.82,-40.07 63.95,-38.04 64.99,-35.96 66.04,-33.88 66.59,-32.26 67.14,-30.63 67.44,-29.53 67.75,-28.42 68.05,-26.79 68.36,-25.16 68.42,-23.99 68.47,-22.82 68.49,-21.28 68.52,-19.74 68.23,-18.16 67.95,-16.58 67.36,-15.68 66.77,-14.78 66.70,-13.08 66.63,-11.37 66.60,-10.02 66.57,-8.67 67.08,-5.92 67.59,-3.16 67.52,-2.58 67.45,-2.00 67.20,-1.48 66.96,-0.95 66.55,-0.53 66.15,-0.11 65.63,0.15 65.12,0.41 64.54,0.50 63.97,0.59 63.39,0.49 62.82,0.39 62.31,0.12 61.79,-0.15 61.40,-0.57 61.00,-1.00 60.76,-1.53 60.52,-2.06 60.46,-2.64 60.40,-3.22 60.53,-3.79 60.66,-4.35 60.97,-4.85 61.27,-5.35 61.72,-5.72 62.17,-6.09 62.71,-6.30 63.25,-6.51 63.83,-6.54 64.41,-6.57 64.97,-6.41 65.53,-6.25 66.01,-5.92 66.49,-5.59 66.84,-5.12 67.19,-4.65 67.37,-4.10 67.55,-3.55 67.55,-2.97 67.54,-2.38 67.35,-1.83 67.16,-1.28 66.80,-0.82 66.45,-0.36 65.96,-0.04 65.48,0.27 64.92,0.42 64.35,0.57 63.77,0.54 63.19,0.50 62.65,0.28 62.11,0.06 61.67,-0.31 61.23,-0.69 60.94,-1.19 60.64,-1.69 60.52,-2.26 60.40,-2.83 60.40,-2.83 60.40,-2.83 60.80,-3.29 61.20,-3.76 60.60,-4.67 60.01,-5.57 59.73,-7.19 59.44,-8.81 59.49,-9.97 59.54,-11.13 60.02,-12.74 60.51,-14.36 60.65,-16.00 60.78,-17.64 61.13,-19.18 61.48,-20.72 61.48,-22.17 61.48,-23.61 61.40,-24.75 61.32,-25.90 60.94,-27.47 60.56,-29.04 59.66,-30.97 58.76,-32.91 58.15,-34.12 57.53,-35.34 57.19,-36.35 56.85,-37.37 55.82,-38.43 54.79,-39.50 53.67,-40.87 52.55,-42.24 52.13,-43.54 51.70,-44.83 50.84,-46.05 49.99,-47.27 49.02,-48.21 48.05,-49.15 45.95,-50.28 43.86,-51.42 43.00,-52.24 42.13,-53.05 40.59,-53.10 39.04,-53.16 36.94,-53.81 34.84,-54.47 33.53,-55.30 32.21,-56.13 30.61,-56.55 29.00,-56.97 27.42,-57.00 25.84,-57.03 24.59,-57.06 23.35,-57.08 22.20,-57.01 21.04,-56.93 19.92,-56.36 18.80,-55.79 17.04,-53.93 15.28,-52.07 14.34,-51.44 13.40,-50.80 12.43,-50.29 11.47,-49.78 10.64,-48.81 9.82,-47.84 9.13,-46.86 8.45,-45.88 7.20,-43.27 5.95,-40.66 5.28,-39.33 4.60,-37.99 4.10,-36.49 3.61,-34.99 3.08,-33.49 2.54,-31.99 2.07,-30.09 1.59,-28.19 1.57,-26.98 1.56,-25.76 1.58,-24.25 1.61,-22.73 1.60,-20.31 1.60,-17.89 1.61,-16.46 1.63,-15.03 1.63,-13.71 1.64,-12.38 1.62,-11.29 1.60,-10.19 1.61,-8.11 1.61,-6.02 1.72,-4.68 1.83,-3.35 2.12,-1.91 2.41,-0.48 2.43,-0.18 2.45,0.10 2.40,0.40 2.36,0.69 2.24,0.96 2.12,1.23 1.94,1.47 1.76,1.71 1.53,1.89 1.30,2.08 1.03,2.21 0.76,2.33 0.47,2.39 0.18,2.45 -0.10,2.43 -0.40,2.42 -0.68,2.34 -0.97,2.25 -1.22,2.10 -1.48,1.96 -1.69,1.75 -1.91,1.54 -2.06,1.29 -2.22,1.04 -2.31,0.76 -2.41,0.48 -2.41,0.48 L -2.41,0.48 Z"></path></g><g transform="translate(1195 400) rotate(0 -1.5 -5.5)" stroke="none"><path fill="#f08c00" d="M -2.22,1.48 Q -2.22,1.48 -2.82,0.62 -3.42,-0.23 -4.50,-2.26 -5.59,-4.30 -5.71,-5.38 -5.84,-6.47 -5.92,-8.72 -6.00,-10.96 -5.93,-11.44 -5.85,-11.92 -5.63,-12.36 -5.41,-12.79 -5.06,-13.13 -4.71,-13.46 -4.27,-13.67 -3.83,-13.88 -3.35,-13.94 -2.86,-14.00 -2.39,-13.90 -1.91,-13.80 -1.49,-13.55 -1.07,-13.30 -0.76,-12.94 -0.44,-12.57 -0.25,-12.12 -0.07,-11.67 -0.04,-11.19 -0.01,-10.70 -0.13,-10.23 -0.26,-9.76 -0.52,-9.36 -0.79,-8.95 -1.18,-8.65 -1.56,-8.36 -2.02,-8.20 -2.48,-8.04 -2.96,-8.03 -3.45,-8.03 -3.91,-8.18 -4.38,-8.33 -4.77,-8.62 -5.16,-8.91 -5.43,-9.31 -5.71,-9.71 -5.84,-10.17 -5.98,-10.64 -5.96,-11.13 -5.94,-11.61 -5.76,-12.06 -5.58,-12.52 -5.27,-12.89 -4.96,-13.27 -4.55,-13.52 -4.13,-13.77 -3.66,-13.88 -3.19,-13.99 -2.70,-13.95 -2.22,-13.90 -1.78,-13.70 -1.33,-13.50 -0.98,-13.17 -0.62,-12.84 -0.39,-12.41 -0.16,-11.98 -0.07,-11.50 0.00,-11.02 0.00,-11.03 0.00,-11.03 -0.24,-8.27 -0.48,-5.50 0.31,-4.36 1.12,-3.21 1.67,-2.34 2.22,-1.48 2.36,-1.19 2.50,-0.90 2.58,-0.59 2.65,-0.27 2.64,0.04 2.64,0.36 2.56,0.67 2.47,0.98 2.32,1.26 2.17,1.55 1.95,1.78 1.73,2.02 1.46,2.20 1.20,2.38 0.89,2.49 0.59,2.60 0.27,2.63 -0.04,2.66 -0.36,2.62 -0.68,2.58 -0.97,2.46 -1.27,2.34 -1.53,2.15 -1.80,1.96 -2.01,1.72 -2.22,1.47 -2.22,1.47 L -2.22,1.48 Z"></path></g><g transform="translate(938 407) rotate(0 -16.5 56)" stroke="none"><path fill="#f08c00" d="M 2.63,0 Q 2.63,0 2.62,1.43 2.60,2.87 2.62,4.06 2.64,5.24 2.71,6.66 2.79,8.07 2.85,9.15 2.92,10.22 2.74,12.24 2.57,14.25 1.20,15.95 -0.16,17.65 -1.62,18.19 -3.07,18.73 -3.87,19.62 -4.68,20.50 -5.84,21.62 -7.01,22.74 -8.26,23.95 -9.52,25.16 -11.07,26.35 -12.61,27.54 -14.04,29.31 -15.46,31.08 -16.63,31.90 -17.79,32.72 -18.88,33.33 -19.96,33.94 -20.88,35.06 -21.79,36.17 -22.41,37.39 -23.04,38.60 -23.23,40.28 -23.43,41.95 -23.93,43.49 -24.43,45.02 -25.38,46.28 -26.32,47.54 -26.96,49.08 -27.60,50.62 -28.08,51.93 -28.56,53.25 -29.03,55.37 -29.50,57.50 -29.65,58.72 -29.80,59.93 -29.87,61.12 -29.95,62.30 -30.01,63.64 -30.07,64.99 -30.08,66.14 -30.09,67.30 -30.12,68.65 -30.15,70.00 -30.15,71.15 -30.15,72.30 -30.22,73.93 -30.29,75.57 -30.33,77.13 -30.37,78.69 -30.36,79.93 -30.35,81.17 -29.91,82.65 -29.47,84.14 -28.91,85.18 -28.36,86.21 -27.13,88.40 -25.89,90.59 -24.56,92.15 -23.24,93.70 -22.08,95.24 -20.92,96.78 -19.70,97.93 -18.48,99.09 -17.47,99.91 -16.45,100.74 -15.50,101.85 -14.55,102.96 -13.54,104.02 -12.53,105.08 -11.87,106.08 -11.21,107.08 -8.74,108.71 -6.27,110.34 -6.08,110.82 -5.88,111.30 -5.85,111.81 -5.83,112.33 -5.96,112.83 -6.10,113.32 -6.39,113.75 -6.67,114.18 -7.08,114.49 -7.49,114.81 -7.98,114.97 -8.47,115.14 -8.99,115.14 -9.50,115.14 -9.99,114.98 -10.48,114.82 -10.89,114.50 -11.30,114.19 -11.59,113.77 -11.88,113.34 -12.02,112.85 -12.16,112.35 -12.14,111.83 -12.11,111.32 -11.92,110.84 -11.73,110.36 -11.40,109.97 -11.07,109.57 -10.62,109.30 -10.18,109.04 -9.68,108.93 -9.18,108.81 -8.66,108.87 -8.15,108.92 -7.68,109.14 -7.21,109.35 -6.84,109.70 -6.46,110.06 -6.22,110.51 -5.98,110.97 -5.89,111.48 -5.81,111.99 -5.89,112.49 -5.97,113.00 -6.21,113.46 -6.45,113.92 -6.83,114.27 -7.20,114.63 -7.67,114.85 -8.13,115.06 -8.65,115.12 -9.16,115.18 -9.66,115.07 -10.17,114.96 -10.61,114.69 -11.05,114.43 -11.39,114.04 -11.72,113.65 -11.72,113.65 -11.72,113.65 -13.09,112.86 -14.46,112.08 -15.37,111.29 -16.28,110.51 -17.19,109.28 -18.10,108.06 -19.00,106.83 -19.91,105.61 -20.97,104.81 -22.03,104.01 -22.93,102.74 -23.83,101.47 -24.87,100.47 -25.91,99.46 -26.63,98.40 -27.36,97.33 -28.33,96.23 -29.31,95.13 -30.33,93.14 -31.34,91.16 -32.27,89.96 -33.20,88.77 -33.71,87.76 -34.22,86.76 -34.93,85.15 -35.64,83.53 -35.64,82.35 -35.64,81.17 -35.63,79.93 -35.62,78.69 -35.66,77.13 -35.70,75.57 -35.77,73.93 -35.84,72.29 -35.83,71.13 -35.82,69.98 -35.85,68.61 -35.87,67.25 -35.86,66.07 -35.85,64.89 -35.86,63.45 -35.87,62.02 -35.83,60.72 -35.79,59.41 -35.42,56.83 -35.05,54.26 -34.95,53.10 -34.84,51.94 -34.50,50.58 -34.16,49.23 -33.39,47.90 -32.61,46.57 -31.58,44.52 -30.54,42.46 -30.09,41.03 -29.63,39.60 -29.32,38.42 -29.00,37.24 -28.38,36.03 -27.75,34.82 -27.06,33.21 -26.36,31.61 -25.66,30.67 -24.96,29.73 -24.07,29.06 -23.18,28.40 -21.69,27.44 -20.19,26.49 -19.06,25.23 -17.92,23.97 -16.72,22.86 -15.52,21.75 -14.57,20.75 -13.62,19.75 -12.07,18.31 -10.51,16.86 -9.14,15.91 -7.76,14.96 -6.62,13.91 -5.48,12.86 -4.39,12.87 -3.29,12.88 -3.11,11.55 -2.92,10.22 -2.85,9.15 -2.79,8.07 -2.71,6.66 -2.64,5.24 -2.62,4.06 -2.60,2.87 -2.62,1.43 -2.63,0 -2.59,-0.31 -2.55,-0.63 -2.44,-0.92 -2.33,-1.22 -2.15,-1.48 -1.97,-1.74 -1.73,-1.95 -1.49,-2.16 -1.21,-2.31 -0.93,-2.46 -0.62,-2.54 -0.31,-2.61 0.00,-2.61 0.31,-2.61 0.62,-2.54 0.93,-2.46 1.21,-2.31 1.49,-2.16 1.73,-1.95 1.97,-1.74 2.15,-1.48 2.33,-1.22 2.44,-0.92 2.55,-0.63 2.59,-0.31 2.63,0.00 2.63,0.00 L 2.63,0 Z"></path></g><g stroke-linecap="round"><g transform="translate(928 516) rotate(0 2 211)"><path d="M-1.1 1.03 C-0.45 71.5, 4.08 352.75, 4.83 423.08 M0.53 0.52 C1.01 70.67, 4.02 351.41, 4.32 421.52" stroke="#f08c00" stroke-width="1" fill="none"></path></g></g><mask></mask><g stroke-linecap="round"><g transform="translate(1043 430) rotate(0 38.5 -1.5)"><path d="M0.38 -0.05 C13.23 -0.36, 63.6 -2.41, 76.27 -2.7 M-0.88 -1.13 C12.43 -1.73, 65.91 -4.27, 78.61 -4.67" stroke="#e03131" stroke-width="2" fill="none"></path></g></g><mask></mask><g stroke-linecap="round"><g transform="translate(1491 426) rotate(0 -62.5 0.5)"><path d="M0.46 -1.13 C-20.27 -0.8, -104.26 1.14, -125.07 1.45 M-0.76 0.9 C-21.59 0.9, -105.37 -0.6, -126.05 -0.43" stroke="#e03131" stroke-width="4" fill="none"></path></g></g><mask></mask><g stroke-linecap="round"><g transform="translate(1307 421) rotate(0 -54 1)"><path d="M0.38 -0.91 C-17.76 -0.27, -89.79 2.09, -107.97 2.69 M-0.88 1.22 C-19.25 1.62, -91.36 1.01, -108.91 0.93" stroke="#e03131" stroke-width="4" fill="none"></path></g></g><mask></mask><g stroke-linecap="round"><g transform="translate(1491 424) rotate(0 0 7)"><path d="M-0.51 0.14 C-0.57 2.44, -0.14 11.24, -0.05 13.49 M0.23 -0.27 C0.06 2.11, -0.41 11.55, -0.5 13.92" stroke="#e03131" stroke-width="4" fill="none"></path></g></g><mask></mask><g transform="translate(1362 424) rotate(0 -28 -14.5)" stroke="none"><path fill="#e03131" d="M -2.52,0 Q -2.52,0 -2.51,-1.43 -2.51,-2.87 -2.50,-4.34 -2.49,-5.82 -2.51,-7.02 -2.54,-8.22 -2.54,-9.59 -2.54,-10.97 -2.82,-13.11 -3.09,-15.26 -3.74,-17.15 -4.38,-19.05 -5.31,-20.44 -6.24,-21.82 -7.29,-23.01 -8.34,-24.21 -9.24,-25.50 -10.15,-26.79 -11.51,-26.31 -12.87,-25.82 -14.44,-25.81 -16.01,-25.80 -18.06,-24.92 -20.12,-24.05 -21.22,-23.95 -22.31,-23.86 -23.61,-23.48 -24.91,-23.10 -26.96,-22.07 -29.02,-21.04 -30.47,-20.98 -31.91,-20.91 -33.11,-20.31 -34.30,-19.71 -36.50,-18.54 -38.70,-17.37 -40.20,-16.43 -41.70,-15.50 -42.91,-14.85 -44.12,-14.20 -45.46,-13.31 -46.79,-12.42 -48.02,-12.19 -49.24,-11.97 -50.25,-11.35 -51.26,-10.73 -52.49,-10.10 -53.71,-9.47 -53.14,-8.09 -52.57,-6.71 -52.56,-4.85 -52.56,-2.99 -52.65,-2.44 -52.74,-1.90 -53.00,-1.40 -53.26,-0.91 -53.66,-0.53 -54.07,-0.15 -54.57,0.07 -55.08,0.31 -55.63,0.37 -56.18,0.43 -56.73,0.31 -57.27,0.19 -57.75,-0.09 -58.22,-0.38 -58.58,-0.80 -58.94,-1.22 -59.15,-1.74 -59.35,-2.26 -59.38,-2.81 -59.41,-3.37 -59.26,-3.90 -59.11,-4.44 -58.80,-4.90 -58.49,-5.36 -58.05,-5.70 -57.60,-6.03 -57.08,-6.21 -56.55,-6.39 -55.99,-6.39 -55.44,-6.39 -54.91,-6.21 -54.38,-6.03 -53.94,-5.69 -53.50,-5.36 -53.19,-4.90 -52.87,-4.44 -52.73,-3.90 -52.58,-3.36 -52.61,-2.81 -52.64,-2.25 -52.84,-1.74 -53.05,-1.22 -53.41,-0.80 -53.77,-0.37 -54.25,-0.09 -54.72,0.19 -55.27,0.31 -55.81,0.43 -56.36,0.37 -56.92,0.31 -57.42,0.07 -57.93,-0.15 -58.33,-0.53 -58.73,-0.92 -58.99,-1.41 -59.25,-1.90 -59.34,-2.45 -59.43,-3.00 -59.43,-3.00 -59.43,-3.00 -59.41,-5.39 -59.38,-7.78 -59.33,-8.89 -59.28,-10.00 -58.87,-11.64 -58.46,-13.27 -57.19,-14.31 -55.92,-15.35 -54.24,-16.37 -52.55,-17.39 -50.69,-17.93 -48.82,-18.48 -47.40,-19.36 -45.98,-20.25 -44.75,-20.91 -43.52,-21.57 -41.95,-22.39 -40.38,-23.22 -38.67,-24.37 -36.96,-25.53 -35.97,-26.00 -34.97,-26.46 -33.69,-26.88 -32.41,-27.31 -30.56,-27.61 -28.71,-27.92 -27.04,-28.68 -25.36,-29.45 -24.17,-29.90 -22.98,-30.35 -21.37,-30.81 -19.77,-31.28 -17.88,-31.73 -15.99,-32.19 -14.40,-32.17 -12.81,-32.15 -11.42,-32.09 -10.03,-32.03 -8.50,-31.66 -6.96,-31.29 -6.02,-30.20 -5.08,-29.12 -3.99,-27.83 -2.90,-26.53 -2.25,-25.64 -1.60,-24.74 -0.80,-23.48 -0.00,-22.23 0.51,-20.45 1.02,-18.66 1.48,-17.45 1.94,-16.24 2.24,-13.60 2.54,-10.97 2.54,-9.59 2.54,-8.22 2.51,-7.02 2.49,-5.82 2.50,-4.34 2.51,-2.87 2.51,-1.43 2.52,0 2.48,0.30 2.45,0.60 2.34,0.88 2.23,1.17 2.06,1.42 1.88,1.67 1.66,1.87 1.43,2.07 1.16,2.21 0.89,2.35 0.59,2.43 0.30,2.50 -0.00,2.50 -0.30,2.50 -0.59,2.43 -0.89,2.35 -1.16,2.21 -1.43,2.07 -1.66,1.87 -1.88,1.67 -2.06,1.42 -2.23,1.17 -2.34,0.88 -2.45,0.60 -2.48,0.30 -2.52,-0.00 -2.52,-0.00 L -2.52,0 Z"></path></g><g transform="translate(1195 419) rotate(0 -38 -6.5)" stroke="none"><path fill="#e03131" d="M -2.62,0 Q -2.62,0 -2.61,-1.43 -2.59,-2.87 -2.61,-4.06 -2.63,-5.24 -2.66,-6.32 -2.68,-7.40 -3.16,-9.38 -3.63,-11.36 -4.30,-12.38 -4.98,-13.40 -5.56,-14.90 -6.15,-16.39 -7.28,-16.08 -8.41,-15.77 -9.84,-15.74 -11.27,-15.71 -12.76,-15.68 -14.26,-15.64 -15.54,-15.63 -16.83,-15.62 -17.97,-15.61 -19.11,-15.61 -20.35,-14.53 -21.58,-13.46 -22.86,-12.61 -24.14,-11.77 -25.90,-11.27 -27.65,-10.77 -29.39,-9.90 -31.13,-9.04 -32.56,-8.08 -33.99,-7.13 -34.89,-6.28 -35.79,-5.43 -36.78,-4.82 -37.78,-4.21 -38.84,-3.10 -39.90,-1.99 -40.87,-1.09 -41.84,-0.19 -42.71,1.05 -43.59,2.30 -44.43,3.79 -45.28,5.29 -46.68,6.69 -48.08,8.08 -49.58,8.32 -51.09,8.56 -52.16,8.58 -53.23,8.60 -54.74,8.61 -56.25,8.62 -57.75,8.62 -59.26,8.62 -60.58,9.08 -61.91,9.54 -63.06,9.59 -64.20,9.63 -65.73,9.64 -67.25,9.65 -68.75,9.65 -70.26,9.65 -73.13,9.65 -75.99,9.65 -76.58,9.56 -77.16,9.46 -77.69,9.18 -78.21,8.91 -78.62,8.48 -79.02,8.05 -79.27,7.51 -79.52,6.97 -79.58,6.39 -79.65,5.80 -79.52,5.22 -79.39,4.64 -79.09,4.13 -78.78,3.63 -78.33,3.24 -77.88,2.86 -77.33,2.64 -76.78,2.42 -76.19,2.39 -75.60,2.36 -75.03,2.52 -74.46,2.68 -73.97,3.01 -73.48,3.34 -73.12,3.81 -72.76,4.28 -72.57,4.84 -72.38,5.40 -72.39,6.00 -72.39,6.59 -72.57,7.15 -72.76,7.71 -73.12,8.18 -73.48,8.65 -73.97,8.98 -74.46,9.32 -75.03,9.47 -75.60,9.63 -76.19,9.60 -76.78,9.57 -77.33,9.35 -77.88,9.13 -78.33,8.75 -78.78,8.36 -79.09,7.86 -79.39,7.35 -79.52,6.77 -79.65,6.19 -79.58,5.60 -79.52,5.02 -79.27,4.48 -79.02,3.94 -78.62,3.51 -78.21,3.08 -77.69,2.81 -77.16,2.53 -76.58,2.43 -75.99,2.34 -75.99,2.34 -76.00,2.34 -73.63,2.34 -71.26,2.34 -69.76,2.34 -68.26,2.34 -66.77,2.34 -65.29,2.34 -64.28,2.75 -63.27,3.16 -62.35,2.56 -61.44,1.96 -59.35,1.67 -57.26,1.37 -55.77,1.37 -54.27,1.37 -52.92,1.96 -51.56,2.56 -50.86,1.40 -50.16,0.24 -49.62,-0.80 -49.09,-1.86 -48.40,-3.08 -47.71,-4.30 -46.54,-4.98 -45.36,-5.67 -44.53,-6.49 -43.69,-7.31 -43.10,-8.24 -42.50,-9.17 -41.25,-10.10 -40.01,-11.03 -38.12,-12.60 -36.23,-14.18 -34.57,-14.81 -32.91,-15.44 -31.99,-16.02 -31.06,-16.60 -29.27,-17.10 -27.49,-17.59 -25.99,-18.46 -24.50,-19.32 -23.30,-20.41 -22.10,-21.50 -20.09,-21.94 -18.08,-22.38 -16.67,-22.37 -15.26,-22.37 -13.75,-22.33 -12.25,-22.30 -10.71,-22.25 -9.17,-22.19 -8.00,-22.11 -6.83,-22.02 -5.20,-21.59 -3.57,-21.16 -2.20,-19.45 -0.84,-17.73 0.10,-16.12 1.06,-14.51 1.43,-13.15 1.81,-11.79 2.23,-10.75 2.66,-9.71 2.67,-8.56 2.68,-7.40 2.66,-6.32 2.63,-5.24 2.61,-4.06 2.59,-2.87 2.61,-1.43 2.62,0 2.59,0.31 2.55,0.62 2.44,0.92 2.32,1.22 2.14,1.48 1.96,1.74 1.73,1.95 1.49,2.16 1.21,2.31 0.93,2.45 0.62,2.53 0.31,2.61 -0.00,2.61 -0.31,2.61 -0.62,2.53 -0.93,2.45 -1.21,2.31 -1.49,2.16 -1.73,1.95 -1.96,1.74 -2.14,1.48 -2.32,1.22 -2.44,0.92 -2.55,0.62 -2.59,0.31 -2.62,-0.00 -2.62,-0.00 L -2.62,0 Z"></path></g><g stroke-linecap="round"><g transform="translate(837 430) rotate(0 0.5 20)"><path d="M-0.01 0.25 C0.16 6.78, 0.87 32.91, 1.1 39.56 M-0.67 -0.09 C-0.58 6.45, 0.41 33.49, 0.73 40.04" stroke="#e03131" stroke-width="2" fill="none"></path></g></g><mask></mask><g stroke-linecap="round"><g transform="translate(836 516) rotate(0 5.5 210.5)"><path d="M1.04 0.25 C2.93 70.44, 9.82 350.95, 11.59 420.97 M0.13 -0.67 C1.88 69.74, 9.1 352.16, 10.96 422.49" stroke="#e03131" stroke-width="2" fill="none"></path></g></g><mask></mask><g transform="translate(836 465) rotate(0 -11.5 26)" stroke="none"><path fill="#e03131" d="M 0,2.65 Q 0,2.65 -1.15,2.67 -2.3,2.69 -3.93,2.74 -5.57,2.80 -6.52,3.41 -7.47,4.02 -9.70,4.81 -11.94,5.59 -13.12,6.13 -14.29,6.68 -15.33,7.23 -16.36,7.78 -17.43,8.96 -18.49,10.14 -18.53,11.39 -18.56,12.65 -19.09,14.31 -19.61,15.96 -19.58,17.08 -19.54,18.20 -19.55,19.51 -19.56,20.82 -19.55,22.00 -19.55,23.18 -19.53,24.71 -19.51,26.25 -18.72,27.67 -17.93,29.10 -16.69,30.27 -15.44,31.44 -14.77,32.66 -14.10,33.88 -13.20,34.73 -12.29,35.58 -11.51,37.89 -10.73,40.20 -10.64,41.52 -10.55,42.84 -9.87,43.86 -9.18,44.87 -8.67,45.88 -8.16,46.89 -6.40,47.57 -4.65,48.24 -3.15,48.73 -1.65,49.21 -0.79,48.77 0.07,48.33 0.65,48.44 1.23,48.55 1.75,48.83 2.27,49.12 2.67,49.56 3.07,50.00 3.31,50.54 3.55,51.08 3.60,51.68 3.65,52.27 3.51,52.84 3.37,53.42 3.06,53.92 2.74,54.42 2.28,54.80 1.82,55.17 1.27,55.38 0.71,55.59 0.12,55.61 -0.46,55.63 -1.03,55.46 -1.60,55.29 -2.08,54.95 -2.57,54.61 -2.92,54.13 -3.27,53.65 -3.45,53.08 -3.62,52.52 -3.61,51.92 -3.60,51.33 -3.40,50.77 -3.20,50.21 -2.83,49.75 -2.46,49.28 -1.96,48.96 -1.47,48.64 -0.89,48.49 -0.32,48.34 0.26,48.39 0.85,48.43 1.40,48.66 1.95,48.89 2.39,49.29 2.84,49.68 3.13,50.19 3.43,50.71 3.54,51.29 3.66,51.87 3.58,52.46 3.51,53.05 3.25,53.58 2.99,54.11 2.57,54.53 2.15,54.96 1.62,55.22 1.10,55.49 0.51,55.58 -0.07,55.66 -0.07,55.66 -0.07,55.66 -2.39,55.47 -4.70,55.28 -6.21,54.77 -7.71,54.26 -9.34,53.66 -10.97,53.07 -11.81,52.23 -12.66,51.38 -13.15,50.38 -13.64,49.38 -14.97,47.78 -16.29,46.19 -16.99,43.83 -17.68,41.46 -17.88,40.29 -18.07,39.12 -18.87,38.24 -19.66,37.35 -20.38,36.25 -21.09,35.15 -22.17,34.37 -23.26,33.60 -24.00,32.39 -24.75,31.18 -25.34,30.29 -25.93,29.40 -26.21,28.32 -26.49,27.25 -26.47,25.74 -26.45,24.22 -26.44,23.14 -26.43,22.05 -26.42,20.59 -26.42,19.12 -26.37,17.86 -26.32,16.60 -25.81,14.75 -25.29,12.91 -25.16,11.65 -25.03,10.39 -24.41,8.79 -23.79,7.19 -22.76,5.65 -21.72,4.11 -19.80,2.99 -17.87,1.88 -16.60,1.34 -15.34,0.79 -13.61,0.23 -11.87,-0.32 -10.00,-1.19 -8.14,-2.07 -6.94,-2.43 -5.75,-2.80 -4.02,-2.74 -2.3,-2.69 -1.15,-2.67 0,-2.65 0.31,-2.61 0.63,-2.58 0.93,-2.46 1.23,-2.35 1.49,-2.17 1.76,-1.98 1.97,-1.74 2.18,-1.50 2.33,-1.22 2.48,-0.94 2.56,-0.63 2.63,-0.32 2.63,0.00 2.63,0.32 2.56,0.63 2.48,0.94 2.33,1.22 2.18,1.51 1.97,1.74 1.76,1.98 1.49,2.17 1.23,2.35 0.93,2.46 0.63,2.58 0.31,2.61 -0.00,2.65 -0.00,2.65 L 0,2.65 Z"></path></g></svg>